<svg xmlns="http://www.w3.org/2000/svg" width="1024" height="1024" viewBox="0 0 1024 1024" version="1.1">
	<path d="M 677.110 71.372 C 671.712 74.417, 670.550 81.124, 674.589 85.923 C 679.840 92.163, 689.455 88.401, 689.455 80.106 C 689.455 73.249, 682.502 68.330, 677.110 71.372 M 815.557 208.223 C 812.149 213.088, 814.540 219, 819.916 219 C 825.101 219, 827.954 212.158, 824.608 207.750 C 822.677 205.207, 817.479 205.478, 815.557 208.223 M 675.259 208.772 C 670.337 209.573, 668.283 217.283, 672 221 C 674.391 223.391, 679.244 223.613, 681.427 221.430 C 686.777 216.080, 682.631 207.573, 675.259 208.772 M 913.926 236.074 C 910.213 239.787, 912.008 245, 917 245 C 920.295 245, 922.004 243.303, 921.985 240.050 C 921.965 236.751, 921.040 235.461, 918.176 234.736 C 916.621 234.343, 915.214 234.786, 913.926 236.074 M 638.183 308.045 C 634.982 311.026, 635.453 316.852, 639.057 318.866 C 644.681 322.007, 651.155 314.945, 647.936 309.182 C 645.954 305.635, 641.346 305.097, 638.183 308.045 M 838.590 326.458 C 837.692 330.448, 838.506 394.880, 839.660 411.159 L 840.273 419.818 836.569 423.659 C 834.531 425.772, 823.344 437.175, 811.707 449 C 748.648 513.082, 741.371 520.705, 742.335 521.669 C 743.293 522.627, 812.991 451.241, 836.850 424.865 L 841.042 420.231 840.808 380.865 C 840.679 359.214, 840.328 337.225, 840.027 332 C 839.537 323.495, 839.387 322.914, 838.590 326.458 M 813.377 358.417 C 813.738 376.613, 814.295 396.900, 814.614 403.500 L 815.195 415.500 798.871 431.500 C 739.114 490.071, 728.006 501.368, 729.123 502.442 C 729.331 502.641, 748.966 483.610, 772.757 460.152 L 816.015 417.500 816.183 400.500 C 816.276 391.150, 816.272 370.413, 816.176 354.417 C 816.017 328.199, 815.838 325.333, 814.360 325.333 C 812.860 325.333, 812.776 328.153, 813.377 358.417 M 857.515 367.750 C 857.896 391.262, 858.550 416.575, 858.968 424 C 859.506 433.578, 859.698 425.878, 859.626 397.500 C 859.484 340.903, 859.097 325, 857.864 325 C 857.148 325, 857.039 338.351, 857.515 367.750 M 794.140 327.750 C 794.149 328.712, 794.124 343.712, 794.085 361.083 C 794.025 387.734, 793.768 393.159, 792.437 395.825 C 789.823 401.066, 792.240 406, 797.422 406 C 803.872 406, 804.990 400.814, 799.504 396.347 L 796.007 393.500 795.953 359.750 C 795.923 340.806, 795.510 326, 795.012 326 C 794.524 326, 794.131 326.788, 794.140 327.750 M 902.704 334.794 L 895.963 341.588 896.020 387.329 C 896.058 417.436, 896.418 432.860, 897.073 432.455 C 897.713 432.059, 898.031 415.913, 897.961 387.287 L 897.853 342.735 901.186 339.117 C 903.019 337.128, 906.065 333.813, 907.956 331.750 C 913.876 325.290, 909.778 327.665, 902.704 334.794 M 880.006 363.250 C 879.875 381.538, 879.742 400.775, 879.710 406 C 879.678 411.225, 879.808 418.875, 879.999 423 C 880.335 430.261, 880.368 430.134, 881.041 419 C 882.077 401.881, 882.142 330, 881.122 330 C 880.639 330, 880.137 344.962, 880.006 363.250 M 716.017 355.286 C 712.945 356.840, 711.136 361.401, 712.639 363.803 C 714.125 366.176, 718.773 366.515, 721.088 364.420 C 723.509 362.229, 723.551 357.809, 721.171 355.655 C 718.998 353.689, 719.152 353.700, 716.017 355.286 M 971.198 365.750 C 968.135 368.398, 967.664 371.363, 969.872 374.090 C 971.518 376.123, 972.191 376.319, 974.608 375.469 C 978.186 374.211, 980.981 367.887, 979.009 365.511 C 977.330 363.488, 973.685 363.600, 971.198 365.750 M 916.123 388.082 C 916.037 389.897, 914.885 391.385, 912.250 393.087 C 908.283 395.649, 906.987 399.075, 909.046 401.555 C 910.725 403.578, 912.471 403.360, 915.498 400.750 C 918.025 398.571, 918.078 398.295, 917.177 392 C 916.665 388.425, 916.191 386.662, 916.123 388.082 M 711.800 401.500 C 712.358 402.600, 720.731 411.299, 730.407 420.832 C 740.083 430.364, 747.975 438.464, 747.945 438.832 C 747.914 439.199, 744.202 442.083, 739.695 445.239 C 728.744 452.909, 725.960 453.004, 717.894 445.989 C 710.437 439.503, 709.340 441.140, 716.564 447.972 C 719.721 450.958, 722.325 454.373, 722.638 455.940 C 723.155 458.523, 722.478 459.132, 710.998 466.419 C 701.126 472.686, 697.964 474.204, 694.359 474.408 C 691.151 474.589, 689.662 474.218, 689.025 473.080 C 688.240 471.676, 681.979 471.465, 632.821 471.182 C 596.996 470.976, 577.852 471.206, 578.500 471.835 C 579.104 472.422, 600.682 473.072, 633 473.477 C 662.425 473.845, 687.288 474.369, 688.250 474.640 C 689.369 474.957, 690 476.120, 690 477.867 C 690 481.136, 691.635 483, 694.500 483 C 697.004 483, 699 481.220, 699 478.986 C 699 477.091, 724.070 460, 726.850 460 C 728.802 460, 732 457.065, 732 455.275 C 732 454.156, 748.651 441, 750.066 441 C 750.515 441, 751.160 441.450, 751.500 442 C 751.840 442.550, 752.597 443, 753.181 443 C 753.809 443, 753.684 442.324, 752.876 441.351 C 751.671 439.899, 752.035 439.271, 755.922 436.101 C 761.947 431.187, 767.832 425.647, 766 426.614 C 765.175 427.049, 761.129 429.789, 757.008 432.702 L 749.517 437.998 730.152 418.749 C 719.501 408.162, 711.243 400.400, 711.800 401.500 M 956.585 422.297 C 950.031 429.009, 913.612 465.656, 875.653 503.735 C 837.693 541.814, 806.866 573.200, 807.148 573.482 C 807.824 574.157, 966.310 415.166, 967.868 412.250 C 968.529 411.012, 968.942 410.021, 968.785 410.047 C 968.628 410.073, 963.138 415.585, 956.585 422.297 M 497.806 414.040 C 495.262 416.584, 494.867 417.604, 495.386 420.290 C 496.646 426.815, 503.485 429.060, 508.354 424.548 C 511.809 421.346, 511.888 416.797, 508.545 413.455 C 505.205 410.114, 501.532 410.314, 497.806 414.040 M 950.441 470.259 C 930.609 490.192, 900.742 520.563, 884.071 537.750 C 861.549 560.970, 853.166 569, 851.451 569 C 845.710 569, 844.037 577.062, 849.182 579.936 C 851.634 581.306, 852.044 581.270, 853.977 579.521 C 855.542 578.104, 856.014 576.655, 855.796 573.938 C 855.508 570.366, 856.356 569.376, 887.500 536.889 C 905.100 518.530, 934.730 488.120, 953.345 469.311 C 981.376 440.987, 987.731 435.045, 990.345 434.716 L 993.500 434.320 990 434.169 C 986.668 434.026, 984.772 435.755, 950.441 470.259 M 919.048 547.742 L 848 618.722 847.917 653.111 L 847.834 687.500 828.439 706 L 809.044 724.500 809.241 738.500 L 809.439 752.500 809.747 738.833 L 810.055 725.166 828.778 706.914 L 847.500 688.661 848.034 707.081 C 848.430 720.725, 848.634 714.741, 848.823 684 C 848.962 661.175, 849.335 637.325, 849.650 631 L 850.222 619.500 857.861 611.393 C 862.063 606.934, 893.721 575.005, 928.214 540.440 C 962.706 505.875, 990.740 477.407, 990.512 477.178 C 990.283 476.949, 958.124 508.703, 919.048 547.742 M 786.602 510.130 C 771.381 525.602, 759.188 538.522, 759.508 538.842 C 759.828 539.162, 769.857 529.525, 781.795 517.427 C 812.494 486.315, 816.582 482, 815.360 482 C 814.765 482, 801.824 494.659, 786.602 510.130 M 820.972 506.253 C 810.782 516.289, 790.579 536.765, 776.077 551.755 L 749.710 579.010 728.605 578.446 L 707.500 577.882 679.145 605.941 L 650.789 634 606.395 634 C 579.927 634, 562 634.373, 562 634.923 C 562 635.473, 580.121 635.878, 606.750 635.924 L 651.500 636.002 680.017 607.640 L 708.534 579.277 729.545 579.769 L 750.556 580.260 791.386 538.880 C 827.040 502.745, 841.091 487.993, 839.843 488.003 C 839.654 488.004, 831.163 496.217, 820.972 506.253 M 556.500 502.907 C 555.248 503.485, 579.197 503.889, 620.500 503.987 C 656.800 504.073, 695.837 504.284, 707.250 504.456 C 718.663 504.629, 728 504.402, 728 503.953 C 728 503.504, 706.737 503.108, 680.750 503.074 C 654.763 503.040, 616.625 502.780, 596 502.497 C 573.952 502.194, 557.676 502.363, 556.500 502.907 M 833.430 519.500 C 821.807 531.357, 815.585 537, 814.137 537 C 809.288 537, 806.154 544.011, 809.506 547.363 C 814.671 552.528, 822.456 547.458, 819.072 541.134 C 818.118 539.352, 818.763 538.164, 823.978 532.105 C 827.281 528.268, 830.377 524.885, 830.859 524.587 C 832.654 523.478, 852.191 502, 851.404 502 C 850.954 502, 842.866 509.875, 833.430 519.500 M 948.351 554.250 C 924.219 578.038, 898.518 603.332, 891.237 610.460 L 878 623.420 878.172 654.460 C 878.277 673.301, 878.591 681.963, 878.970 676.500 C 879.314 671.550, 879.682 657.600, 879.787 645.500 L 879.979 623.500 936.740 567.289 C 967.958 536.372, 993.214 511.060, 992.864 511.039 C 992.514 511.017, 972.483 530.462, 948.351 554.250 M 602 548.974 C 601.084 549.582, 587.948 549.975, 568.250 549.985 C 549.260 549.994, 536 550.379, 536 550.921 C 536 551.462, 549.107 551.891, 567.670 551.958 L 599.339 552.074 601.622 554.537 C 604.193 557.312, 605.811 557.590, 608.395 555.701 C 609.577 554.836, 610.059 553.414, 609.836 551.451 C 609.555 548.986, 609.006 548.457, 606.500 548.239 C 604.850 548.096, 602.825 548.427, 602 548.974 M 666.655 584.216 L 640.809 609.390 593.155 609.241 C 566.940 609.159, 546.665 609.463, 548.090 609.916 C 549.515 610.370, 571.115 610.821, 596.090 610.919 L 641.500 611.096 667.500 585.513 L 693.500 559.931 715.666 560.215 C 727.858 560.372, 738.170 560.163, 738.583 559.750 C 738.996 559.337, 728.796 559.009, 715.917 559.021 L 692.500 559.041 666.655 584.216 M 939.740 597.835 C 925.573 611.951, 913.999 624.175, 914.022 625 C 914.049 625.966, 914.977 625.433, 916.632 623.500 C 918.044 621.850, 929.814 609.821, 942.786 596.769 C 955.758 583.718, 966.176 572.843, 965.936 572.605 C 965.696 572.366, 953.908 583.720, 939.740 597.835 M 535.473 578.957 C 535.907 579.658, 552.055 580, 584.726 580 C 611.460 580, 633.146 579.827, 632.917 579.616 C 632.688 579.406, 610.524 578.936, 583.664 578.573 C 549.850 578.116, 535.027 578.234, 535.473 578.957 M 806.711 584.623 C 806.368 584.965, 806.059 602.104, 806.024 622.709 L 805.960 660.173 788.112 679.336 C 767.865 701.076, 762.834 706.766, 765.040 705.431 C 766.824 704.352, 788.629 681.570, 800.196 668.700 L 808.104 659.901 807.933 621.950 C 807.839 601.078, 807.665 584, 807.548 584 C 807.430 584, 807.053 584.280, 806.711 584.623 M 718.038 609.461 C 712.470 615.135, 713.898 615.498, 719.636 609.867 L 723.847 605.734 742.478 606.892 C 753.369 607.570, 761.941 608.560, 763.112 609.275 C 764.213 609.949, 765.817 611.967, 766.676 613.761 C 768.604 617.785, 772.271 618.970, 775.040 616.464 C 777.493 614.244, 777.540 611.798, 775.171 609.655 C 773.023 607.711, 770.697 607.548, 768.115 609.160 C 766.616 610.096, 765.703 609.931, 763.379 608.301 C 760.836 606.517, 758.284 606.202, 741.496 605.602 L 722.493 604.922 718.038 609.461 M 733.663 645.257 C 732.717 645.949, 731.843 647.830, 731.721 649.438 C 731.552 651.674, 732.118 652.715, 734.135 653.871 C 736.516 655.236, 737.021 655.216, 739.385 653.667 C 742.470 651.646, 742.823 648.055, 740.171 645.655 C 737.985 643.677, 735.991 643.555, 733.663 645.257 M 669.459 658.045 C 667.652 660.042, 666.691 660.088, 629.054 659.986 C 607.849 659.928, 585.325 660.014, 579 660.177 C 572.675 660.339, 590 660.703, 617.500 660.986 C 669.514 661.521, 670.852 661.434, 672.385 657.440 C 673.187 655.348, 671.603 655.676, 669.459 658.045 M 723.166 712.596 C 721.479 713.778, 720.967 714.985, 721.194 717.245 C 721.589 721.188, 723.991 722.739, 727.697 721.444 C 731.517 720.108, 732.181 714.941, 728.834 712.596 C 727.580 711.718, 726.305 711, 726 711 C 725.695 711, 724.420 711.718, 723.166 712.596" stroke="none" fill="#e7d5b4" fill-rule="evenodd"/>
</svg>