<svg viewBox="0 0 1024 1024" xmlns="http://www.w3.org/2000/svg" fill="none" stroke="gold" stroke-width="2">
  <path class="circuit" d="M554,941 L553,942 L551,942 L548,945 L548,946 L547,947 L547,952 L548,953 L548,955 L550,957 L559,957 L562,954 L562,952 L563,951 L563,948 L562,947 L562,945 L559,942 L556,942 L555,941"/>
  <path class="circuit" d="M838,826 L837,827 L836,827 L836,828 L835,829 L835,834 L836,835 L836,836 L837,837 L844,837 L846,835 L846,834 L847,833 L847,831 L846,830 L846,828 L845,827 L844,827 L843,826"/>
  <path class="circuit" d="M712,808 L690,830 L690,831 L673,848 L673,849 L672,850 L672,852 L673,853 L672,854 L673,855 L672,856 L673,857 L673,901 L673,857 L672,856 L673,855 L672,854 L673,853 L672,852 L672,851 L673,850 L673,849 L690,832 L690,831 L712,809"/>
  <path class="circuit" d="M708,805 L666,847 L666,848 L665,849 L665,871 L664,872 L665,873 L664,874 L664,875 L665,876 L664,877 L664,910 L664,877 L665,876 L664,875 L664,874 L665,873 L664,872 L665,871 L665,849 L709,805"/>
  <path class="circuit" d="M714,794 L713,795 L712,795 L711,796 L711,798 L710,799 L710,802 L711,803 L711,804 L713,806 L714,806 L715,807 L720,807 L723,804 L723,803 L724,802 L724,800 L723,799 L723,797 L721,795 L720,795 L719,794"/>
  <path class="circuit" d="M915,772 L914,773 L912,773 L911,774 L911,775 L910,776 L910,780 L911,781 L911,782 L913,784 L919,784 L920,783 L921,783 L921,781 L922,780 L922,777 L921,776 L921,774 L920,774 L919,773 L918,773 L917,772"/>
  <path class="circuit" d="M724,710 L723,711 L722,711 L720,713 L720,714 L719,715 L719,717 L718,718 L717,718 L716,719 L715,718 L716,719 L685,750 L685,751 L671,765 L670,765 L670,766 L660,776 L659,776 L657,778 L657,779 L656,780 L655,780 L616,819 L615,819 L586,848 L585,848 L565,868 L564,868 L564,869 L563,870 L562,870 L551,881 L551,899 L550,900 L550,902 L551,903 L550,904 L550,918 L549,919 L549,920 L549,919 L550,918 L550,904 L551,903 L550,902 L550,900 L551,899 L551,882 L563,870 L564,870 L564,869 L565,868 L566,868 L586,848 L587,848 L616,819 L617,819 L719,717 L719,715 L724,710 L727,710 L731,714 L731,715 L732,716 L732,718 L728,722 L726,722 L725,723 L724,722 L723,722 L720,719 L720,720 L719,721 L718,721 L633,806 L633,807 L588,852 L588,853 L587,854 L586,854 L585,855 L585,856 L561,880 L561,881 L559,883 L560,884 L560,887 L561,888 L561,889 L560,890 L560,895 L561,896 L561,899 L560,900 L560,901 L560,900 L561,899 L561,896 L560,895 L560,890 L561,889 L561,888 L560,887 L560,883 L561,882 L561,881 L585,857 L585,856 L587,854 L588,854 L588,853 L632,809 L632,808 L720,720 L722,722 L724,722 L725,723 L726,722 L729,722 L731,720 L731,719 L732,718 L732,716 L731,715 L731,713 L729,711 L728,711 L727,710"/>
  <path class="circuit" d="M846,690 L829,707 L828,707 L828,708 L827,709 L826,709 L810,725 L810,856 L811,857 L811,858 L810,859 L811,860 L811,889 L812,890 L812,920 L813,921 L813,922 L812,923 L812,925 L811,926 L811,927 L805,933 L806,933 L811,928 L811,927 L812,926 L812,923 L813,922 L813,921 L812,920 L812,890 L811,889 L811,860 L810,859 L811,858 L811,857 L810,856 L810,726 L846,690 L847,691 L847,769 L849,771 L849,772 L853,776 L854,776 L867,789 L867,790 L870,793 L870,796 L869,797 L869,838 L868,839 L869,840 L869,842 L868,843 L868,871 L867,872 L867,874 L868,875 L867,876 L868,877 L867,878 L868,879 L867,880 L867,890 L868,891 L867,892 L867,895 L868,896 L868,897 L869,898 L869,899 L879,909 L880,909 L882,911 L882,912 L896,926 L896,927 L908,939 L909,939 L910,940 L896,926 L896,925 L881,910 L881,909 L880,909 L869,898 L869,897 L867,895 L867,892 L868,891 L867,890 L867,880 L868,879 L867,878 L868,877 L867,876 L868,875 L867,874 L867,872 L868,871 L868,843 L869,842 L869,840 L868,839 L869,838 L869,797 L870,796 L870,792 L867,789 L867,788 L855,776 L854,776 L849,771 L849,770 L847,768 L847,690"/>
  <path class="circuit" d="M735,643 L734,644 L733,644 L731,646 L731,647 L730,648 L730,649 L728,651 L727,651 L719,659 L719,660 L666,713 L666,714 L663,717 L598,717 L545,770 L545,776 L544,777 L544,806 L543,807 L543,808 L542,809 L541,809 L520,830 L519,830 L503,846 L502,846 L502,847 L499,850 L498,850 L498,851 L497,852 L496,852 L468,880 L467,880 L467,881 L463,885 L462,885 L461,886 L461,887 L459,889 L458,889 L457,890 L457,891 L454,894 L459,889 L460,889 L460,888 L463,885 L464,885 L467,882 L467,881 L468,880 L469,880 L497,852 L498,852 L498,851 L499,850 L500,850 L502,848 L502,847 L503,846 L504,846 L520,830 L521,830 L542,809 L543,809 L543,808 L544,807 L544,777 L545,776 L545,771 L599,717 L663,717 L719,661 L719,660 L728,651 L729,651 L730,650 L731,651 L731,653 L730,654 L729,654 L726,657 L725,657 L724,658 L724,659 L664,719 L600,719 L547,772 L547,782 L548,783 L548,809 L533,824 L533,825 L503,855 L503,856 L497,862 L497,863 L496,864 L495,864 L495,865 L493,867 L492,867 L490,869 L490,870 L487,873 L486,873 L486,874 L469,891 L469,892 L456,905 L456,906 L454,908 L453,908 L451,910 L451,911 L454,908 L455,908 L455,907 L466,896 L466,895 L467,894 L468,894 L469,893 L469,892 L486,875 L486,874 L487,873 L488,873 L490,871 L490,870 L493,867 L494,867 L495,866 L495,865 L496,864 L497,864 L497,863 L503,857 L503,856 L531,828 L531,827 L532,826 L533,826 L533,825 L548,810 L548,783 L547,782 L547,773 L573,747 L573,746 L600,719 L664,719 L665,718 L666,718 L678,706 L678,705 L679,704 L680,704 L695,689 L695,688 L697,686 L698,686 L699,685 L699,684 L701,682 L702,682 L704,680 L704,679 L705,678 L706,678 L708,676 L708,675 L709,674 L710,674 L716,668 L716,667 L718,665 L719,665 L724,660 L724,659 L726,657 L727,657 L728,656 L729,657 L728,656 L731,653 L733,655 L737,655 L738,654 L740,654 L742,652 L742,646 L740,644 L739,644 L738,643"/>
  <path class="circuit" d="M952,626 L952,630 L953,631 L953,633 L954,634 L955,634 L956,635 L957,635 L958,634 L960,634 L961,633 L964,633 L996,665 L997,665 L1006,674 L1023,674 L1007,674 L998,665 L997,665 L965,633 L960,633 L959,634 L958,634 L957,635 L956,635 L953,632 L953,631 L952,630 L952,627 L953,626 L957,626 L960,629 L961,629 L962,630 L964,630 L965,631 L966,631 L996,661 L997,661 L1007,671 L1023,671 L1008,671 L998,661 L997,661 L967,631 L966,631 L965,630 L962,630 L958,626"/>
  <path class="circuit" d="M722,604 L721,605 L720,605 L698,627 L697,627 L688,636 L688,637 L666,659 L626,659 L625,658 L555,658 L536,677 L536,678 L529,685 L528,685 L527,686 L527,687 L518,696 L517,696 L514,699 L514,700 L512,702 L511,702 L484,729 L483,729 L482,730 L482,731 L480,733 L479,733 L462,750 L461,750 L450,761 L450,769 L449,770 L450,771 L449,772 L449,807 L448,808 L449,809 L448,810 L448,815 L440,823 L440,824 L438,826 L437,826 L433,830 L433,831 L432,832 L431,832 L430,833 L430,834 L421,843 L420,843 L418,845 L419,844 L420,844 L422,842 L423,842 L423,841 L429,835 L430,835 L430,834 L438,826 L439,826 L440,825 L440,824 L447,817 L447,816 L448,815 L448,810 L449,809 L448,808 L449,807 L449,772 L450,771 L449,770 L450,769 L450,762 L453,759 L453,758 L454,757 L455,757 L462,750 L463,750 L480,733 L481,733 L481,732 L484,729 L485,729 L512,702 L513,702 L514,701 L514,700 L518,696 L519,696 L527,688 L527,687 L529,685 L530,685 L532,683 L532,682 L556,658 L625,658 L626,659 L667,659 L688,638 L688,637 L698,627 L699,627 L722,604 L735,604 L736,605 L735,606 L723,606 L696,633 L696,634 L689,641 L688,641 L685,644 L685,645 L683,647 L682,647 L673,656 L673,657 L671,659 L670,659 L668,661 L557,661 L556,662 L555,662 L534,683 L534,684 L497,721 L497,722 L478,741 L478,742 L460,760 L460,761 L458,763 L458,818 L437,839 L437,840 L427,850 L427,851 L426,852 L425,852 L416,861 L416,862 L414,864 L413,864 L411,866 L411,867 L409,869 L409,870 L411,868 L411,867 L414,864 L415,864 L416,863 L416,862 L426,852 L427,852 L427,851 L437,841 L437,840 L457,820 L457,819 L458,818 L458,764 L460,762 L460,761 L478,743 L478,742 L497,723 L497,722 L533,686 L533,685 L556,662 L557,662 L558,661 L669,661 L671,659 L672,659 L673,658 L673,657 L683,647 L684,647 L685,646 L685,645 L689,641 L690,641 L696,635 L696,634 L724,606 L735,606 L736,607 L753,607 L754,608 L760,608 L761,609 L762,609 L766,613 L766,615 L768,617 L770,617 L771,618 L773,618 L774,617 L775,617 L776,616 L776,614 L777,613 L777,612 L776,611 L776,609 L775,608 L773,608 L772,607 L770,607 L769,608 L767,608 L766,609 L764,607 L763,607 L762,606 L759,606 L758,605 L736,605 L735,604"/>
  <path class="circuit" d="M358,543 L361,543 L362,544 L363,544 L364,543 L365,543 L366,544 L386,544 L387,545 L415,545 L416,546 L417,546 L418,545 L419,546 L441,546 L442,547 L443,547 L444,546 L445,546 L446,547 L481,547 L482,548 L539,548 L540,549 L600,549 L601,548 L602,548 L603,547 L607,547 L610,550 L610,553 L609,554 L609,555 L608,556 L607,556 L606,557 L604,557 L600,553 L600,552 L484,552 L483,553 L481,553 L480,552 L479,553 L441,553 L440,554 L408,554 L407,555 L406,554 L405,554 L404,555 L369,555 L368,556 L340,556 L368,556 L369,555 L404,555 L405,554 L406,554 L407,555 L408,554 L440,554 L441,553 L479,553 L480,552 L481,553 L483,553 L484,552 L599,552 L600,553 L600,554 L602,556 L603,556 L604,557 L606,557 L607,556 L609,556 L609,555 L610,554 L610,549 L608,547 L602,547 L600,549 L540,549 L539,548 L482,548 L481,547 L446,547 L445,546 L444,546 L443,547 L442,547 L441,546 L419,546 L418,545 L417,546 L416,546 L415,545 L387,545 L386,544 L366,544 L365,543 L364,543 L363,544 L362,544 L361,543"/>
  <path class="circuit" d="M1000,538 L990,548 L990,549 L917,622 L917,623 L915,625 L915,639 L914,640 L915,641 L914,642 L914,665 L915,666 L915,667 L943,695 L944,695 L956,707 L957,707 L968,718 L969,718 L979,728 L980,728 L981,729 L981,730 L983,732 L985,732 L986,733 L991,733 L992,732 L993,733 L996,733 L997,732 L998,733 L999,732 L1023,732 L999,732 L998,733 L997,732 L996,733 L993,733 L992,732 L991,733 L986,733 L985,732 L984,732 L981,729 L981,728 L980,728 L970,718 L969,718 L958,707 L957,707 L945,695 L944,695 L914,665 L914,642 L915,641 L914,640 L915,639 L915,626 L917,624 L917,623 L927,613 L927,612 L928,611 L929,611 L929,610 L958,581 L959,581 L959,580 L999,540 L999,539 L1000,538 L1023,538"/>
  <path class="circuit" d="M999,536 L973,562 L973,563 L948,588 L947,588 L945,590 L945,591 L944,592 L943,592 L913,622 L913,624 L912,625 L912,667 L913,668 L913,669 L962,718 L962,719 L981,738 L1023,738 L982,738 L961,717 L961,716 L912,667 L912,625 L913,624 L913,623 L988,548 L988,547 L999,536 L1023,536"/>
  <path class="circuit" d="M685,532 L678,539 L677,539 L677,540 L660,557 L659,557 L640,576 L640,577 L637,580 L494,580 L493,581 L492,580 L491,581 L433,581 L432,582 L402,582 L401,583 L370,583 L362,591 L361,591 L356,596 L356,597 L341,612 L342,612 L356,598 L356,597 L363,590 L364,590 L371,583 L401,583 L402,582 L432,582 L433,581 L491,581 L492,580 L493,581 L494,580 L638,580 L640,578 L640,577 L660,557 L661,557 L673,545 L673,544 L674,543 L675,543 L677,541 L677,540 L678,539 L679,539 L686,532"/>
  <path class="circuit" d="M993,511 L918,586 L917,586 L880,623 L880,667 L879,668 L879,689 L880,690 L880,691 L910,721 L910,722 L918,730 L919,730 L956,767 L957,767 L982,792 L982,829 L982,791 L958,767 L957,767 L920,730 L919,730 L904,715 L904,714 L900,710 L899,710 L897,708 L897,707 L879,689 L879,668 L880,667 L880,624 L975,529 L976,529 L981,524 L982,525 L981,524 L994,511 L1023,511"/>
  <path class="circuit" d="M432,510 L431,511 L401,511 L400,512 L376,512 L375,513 L374,513 L373,512 L371,512 L370,513 L346,513 L370,513 L371,512 L373,512 L374,513 L375,513 L376,512 L400,512 L401,511 L431,511 L432,510 L449,510 L450,511 L451,511 L452,512 L452,513 L453,514 L454,514 L472,532 L473,532 L474,533 L632,533 L633,534 L632,535 L633,534 L643,544 L643,545 L650,552 L650,553 L652,555 L653,555 L646,548 L646,547 L633,534 L633,533 L475,533 L474,532 L473,532 L455,514 L454,514 L452,512 L452,511 L450,511 L449,510"/>
  <path class="circuit" d="M992,509 L953,548 L952,548 L951,549 L951,550 L949,552 L948,552 L888,612 L887,612 L878,621 L878,623 L877,624 L877,692 L908,723 L908,724 L926,742 L926,743 L938,755 L938,756 L951,769 L951,770 L963,782 L963,783 L972,792 L972,793 L973,794 L973,801 L973,796 L974,795 L975,795 L972,792 L972,791 L963,782 L963,781 L951,769 L951,768 L938,755 L938,754 L926,742 L926,741 L908,723 L908,722 L877,691 L877,624 L878,623 L878,622 L916,584 L917,584 L992,509 L1023,509"/>
  <path class="circuit" d="M380,497 L379,498 L378,498 L379,498 L380,497 L382,497 L383,498 L384,497 L385,497 L386,498 L402,498 L403,499 L404,498 L406,498 L407,499 L433,499 L434,500 L452,500 L454,502 L455,502 L456,503 L456,504 L462,510 L462,511 L468,517 L468,518 L473,523 L473,524 L477,528 L477,529 L478,529 L479,530 L518,530 L519,531 L634,531 L635,532 L635,533 L648,546 L648,547 L654,553 L649,548 L649,547 L639,537 L639,536 L634,531 L519,531 L518,530 L479,530 L477,528 L477,527 L473,523 L473,522 L468,517 L468,516 L462,510 L462,509 L454,501 L453,501 L452,500 L434,500 L433,499 L407,499 L406,498 L404,498 L403,499 L402,498 L386,498 L385,497 L384,497 L383,498 L382,497"/>
  <path class="circuit" d="M990,479 L988,481 L987,481 L863,605 L863,606 L850,619 L850,620 L849,621 L849,723 L850,724 L849,725 L849,726 L850,727 L850,767 L865,782 L866,782 L873,789 L873,790 L874,791 L874,793 L875,794 L875,797 L874,798 L875,799 L875,800 L874,801 L874,802 L875,803 L874,804 L874,807 L875,808 L875,855 L876,856 L875,857 L875,860 L876,861 L876,864 L875,865 L876,866 L876,892 L877,893 L877,894 L878,895 L879,895 L890,906 L891,906 L893,908 L893,909 L894,910 L895,910 L902,917 L903,917 L904,918 L904,919 L905,920 L906,920 L908,922 L908,923 L909,924 L910,924 L921,935 L922,935 L931,944 L931,943 L930,942 L929,942 L927,940 L927,939 L926,939 L925,938 L925,937 L924,936 L923,936 L911,924 L910,924 L908,922 L908,921 L907,920 L906,920 L904,918 L904,917 L903,917 L896,910 L895,910 L893,908 L893,907 L892,907 L880,895 L879,895 L876,892 L876,866 L875,865 L876,864 L876,861 L875,860 L875,857 L876,856 L875,855 L875,808 L874,807 L874,804 L875,803 L874,802 L874,801 L875,800 L875,799 L874,798 L875,797 L875,794 L874,793 L874,790 L873,789 L873,788 L867,782 L866,782 L850,766 L850,727 L849,726 L849,725 L850,724 L849,723 L849,621 L850,620 L850,619 L862,607 L863,608 L862,607 L879,590 L880,591 L879,590 L990,479 L1023,479"/>
  <path class="circuit" d="M989,476 L913,552 L912,551 L913,552 L848,617 L848,619 L847,620 L847,686 L843,690 L842,690 L815,717 L814,717 L808,723 L808,754 L807,755 L807,857 L806,858 L806,895 L805,896 L805,902 L806,903 L805,904 L805,919 L789,935 L788,935 L788,936 L780,944 L780,945 L783,942 L783,941 L784,940 L785,940 L788,937 L788,936 L789,935 L790,935 L795,930 L795,929 L798,926 L799,926 L804,921 L804,920 L805,919 L805,904 L806,903 L805,902 L805,896 L806,895 L806,858 L807,857 L807,755 L808,754 L808,724 L827,705 L828,705 L845,688 L846,688 L847,687 L847,620 L848,619 L848,618 L861,605 L861,604 L986,479 L987,479 L990,476 L1023,476"/>
  <path class="circuit" d="M452,445 L454,445 L455,446 L456,446 L457,447 L458,447 L463,452 L463,453 L464,453 L467,456 L467,457 L470,460 L471,460 L472,461 L472,462 L486,476 L487,476 L488,477 L488,478 L490,480 L491,480 L496,485 L496,486 L497,486 L515,504 L517,504 L518,505 L590,505 L591,504 L592,504 L593,505 L594,505 L595,504 L702,504 L703,505 L704,504 L710,504 L704,504 L703,505 L702,504 L595,504 L594,505 L593,505 L592,504 L591,504 L590,505 L518,505 L517,504 L516,504 L498,486 L497,486 L496,485 L496,484 L492,480 L491,480 L466,455 L466,454 L465,453 L464,453 L463,452 L463,451 L459,447 L458,447 L457,446 L455,446 L454,445"/>
  <path class="circuit" d="M986,433 L985,434 L984,434 L978,440 L978,441 L977,442 L976,442 L975,443 L975,444 L894,525 L894,526 L870,550 L870,551 L855,566 L854,565 L855,566 L853,568 L848,568 L845,571 L845,576 L846,577 L846,578 L848,580 L850,580 L851,581 L852,581 L853,580 L854,580 L855,579 L855,577 L856,576 L856,572 L855,571 L855,570 L884,541 L884,540 L908,516 L908,515 L987,436 L999,436 L1000,435 L1023,435 L1000,435 L999,436 L986,436 L922,500 L922,501 L889,534 L889,535 L865,559 L865,560 L861,564 L860,564 L859,565 L859,566 L855,570 L855,572 L856,573 L856,576 L855,577 L855,578 L852,581 L851,581 L850,580 L849,580 L845,576 L845,572 L849,568 L854,568 L857,565 L857,564 L859,562 L860,562 L863,559 L863,558 L887,534 L887,533 L920,500 L920,499 L986,433 L1023,433"/>
  <path class="circuit" d="M502,409 L501,410 L499,410 L498,411 L497,411 L495,413 L495,414 L494,415 L494,417 L493,418 L493,420 L494,421 L494,423 L498,427 L500,427 L501,428 L504,428 L505,427 L507,427 L508,426 L509,426 L510,425 L510,424 L511,423 L511,420 L512,419 L512,416 L511,415 L511,414 L510,413 L510,412 L509,411 L508,411 L507,410 L506,410 L505,409"/>
  <path class="circuit" d="M978,402 L951,429 L951,430 L808,573 L808,658 L807,659 L807,661 L797,671 L797,672 L784,685 L784,686 L768,702 L768,703 L764,707 L764,810 L765,811 L765,859 L766,860 L766,865 L765,866 L765,867 L757,875 L757,876 L742,891 L742,892 L734,900 L734,901 L725,910 L725,945 L725,911 L734,902 L734,901 L742,893 L742,892 L757,877 L757,876 L766,867 L765,866 L766,865 L766,860 L765,859 L765,811 L764,810 L764,708 L768,704 L768,703 L784,687 L784,686 L796,674 L796,673 L807,662 L807,659 L808,658 L808,573 L813,568 L814,568 L858,524 L858,523 L860,521 L861,521 L863,519 L863,518 L979,402 L1023,402"/>
  <path class="circuit" d="M977,399 L958,418 L958,419 L906,471 L905,470 L906,471 L906,472 L904,474 L903,474 L898,479 L898,480 L896,482 L895,482 L892,485 L892,486 L889,489 L888,489 L881,496 L880,495 L881,496 L865,512 L864,511 L865,512 L857,520 L857,521 L851,527 L850,527 L850,528 L806,572 L806,585 L805,586 L806,587 L806,589 L805,590 L805,659 L798,666 L798,667 L781,684 L781,685 L761,705 L761,706 L760,707 L760,772 L761,773 L760,774 L760,775 L761,776 L761,804 L760,805 L760,863 L751,872 L750,872 L750,873 L744,879 L743,879 L741,881 L741,882 L740,883 L739,883 L715,907 L715,908 L714,909 L714,925 L713,926 L713,928 L714,929 L713,930 L713,931 L714,932 L713,931 L713,930 L714,929 L713,928 L713,926 L714,925 L714,910 L715,909 L715,908 L744,879 L745,879 L750,874 L750,873 L751,872 L752,872 L754,870 L754,869 L755,868 L756,868 L760,864 L760,805 L761,804 L761,776 L760,775 L760,774 L761,773 L760,772 L760,707 L781,686 L781,685 L795,671 L795,670 L805,660 L805,590 L806,589 L806,587 L805,586 L806,585 L806,572 L949,429 L949,428 L978,399 L1023,399"/>
  <path class="circuit" d="M971,363 L968,366 L968,367 L967,368 L967,372 L968,373 L968,374 L970,376 L976,376 L978,374 L978,373 L979,372 L979,371 L980,370 L980,369 L981,368 L1017,368 L1018,367 L1023,367 L1018,367 L1017,368 L981,368 L980,367 L980,365 L981,364 L996,364 L997,363 L1023,363 L997,363 L996,364 L979,364 L978,363"/>
  <path class="circuit" d="M584,334 L583,335 L579,335 L583,335 L584,334 L591,334 L592,335 L593,335 L594,334 L635,334 L639,338 L640,338 L647,345 L648,345 L656,353 L657,353 L665,361 L666,361 L676,371 L677,371 L690,384 L691,384 L705,398 L706,398 L730,422 L731,422 L747,438 L745,440 L744,440 L742,442 L741,442 L738,445 L737,445 L735,447 L734,447 L731,450 L724,450 L720,446 L719,446 L695,422 L635,422 L634,421 L633,422 L632,422 L631,421 L598,421 L596,419 L596,418 L591,413 L591,412 L587,408 L587,407 L582,402 L582,401 L579,398 L579,397 L574,392 L574,391 L569,386 L569,385 L564,380 L564,379 L563,378 L562,378 L561,377 L561,376 L560,376 L564,380 L564,381 L569,386 L569,387 L574,392 L574,393 L579,398 L579,399 L582,402 L582,403 L587,408 L587,409 L591,413 L591,414 L596,419 L596,420 L597,421 L631,421 L632,422 L633,422 L634,421 L635,422 L694,422 L718,446 L719,446 L723,450 L732,450 L735,447 L736,447 L738,445 L739,445 L742,442 L743,442 L745,440 L746,440 L747,439 L747,438 L707,398 L706,398 L692,384 L691,384 L678,371 L677,371 L667,361 L666,361 L659,354 L658,354 L649,345 L648,345 L641,338 L640,338 L637,335 L636,335 L635,334 L594,334 L593,335 L592,335 L591,334"/>
  <path class="circuit" d="M638,305 L636,307 L636,308 L635,309 L635,311 L634,312 L634,313 L635,314 L635,317 L637,319 L638,319 L639,320 L644,320 L645,319 L646,319 L648,317 L648,316 L649,315 L649,309 L648,308 L648,307 L646,305"/>
  <path class="circuit" d="M1023,242 L1023,243 L1011,255 L1011,256 L992,275 L992,276 L968,300 L968,301 L948,321 L948,322 L930,340 L930,341 L916,355 L916,357 L915,358 L915,377 L914,378 L914,389 L913,390 L913,391 L912,392 L910,392 L907,395 L907,401 L909,403 L913,403 L914,402 L915,402 L918,399 L918,394 L917,393 L917,390 L918,389 L918,376 L919,375 L919,358 L945,332 L945,331 L957,319 L958,319 L959,318 L959,317 L962,314 L963,314 L1000,277 L1001,277 L1001,276 L1006,271 L1007,271 L1023,255 L1023,253 L1023,254 L1005,272 L1004,272 L1001,275 L1001,276 L1000,277 L999,277 L962,314 L961,314 L959,316 L959,317 L957,319 L956,319 L945,330 L945,331 L919,357 L919,375 L918,376 L918,389 L917,390 L917,393 L918,394 L918,398 L913,403 L910,403 L907,400 L907,396 L911,392 L912,392 L914,390 L914,378 L915,377 L915,358 L916,357 L916,356 L930,342 L930,341 L948,323 L948,322 L968,302 L968,301 L991,278 L991,277 L1010,258 L1010,257 L1023,244"/>
  <path class="circuit" d="M914,233 L911,236 L911,238 L910,239 L910,242 L911,243 L911,244 L913,246 L919,246 L920,245 L921,245 L921,244 L923,242 L923,236 L922,235 L922,234 L921,233"/>
  <path class="circuit" d="M670,232 L669,233 L670,234 L670,268 L671,269 L671,270 L670,271 L671,272 L670,273 L670,276 L671,277 L670,278 L671,279 L671,304 L670,305 L670,307 L671,308 L671,310 L672,311 L672,312 L682,322 L683,322 L706,345 L707,345 L713,351 L713,353 L714,354 L712,356 L712,357 L711,358 L711,364 L713,366 L715,366 L716,367 L717,366 L720,366 L723,363 L723,361 L724,360 L724,358 L723,357 L723,355 L722,354 L721,354 L720,353 L720,349 L719,348 L719,346 L710,337 L710,336 L707,333 L707,332 L702,327 L702,326 L692,316 L692,315 L687,310 L687,309 L683,305 L682,305 L681,304 L681,251 L682,250 L682,248 L681,247 L681,245 L681,247 L682,248 L682,250 L681,251 L681,305 L682,305 L687,310 L687,311 L693,317 L693,318 L702,327 L702,328 L707,333 L707,334 L710,337 L710,338 L719,347 L719,348 L720,349 L720,351 L718,353 L717,353 L716,354 L714,354 L713,353 L713,350 L708,345 L707,345 L687,325 L686,325 L685,324 L685,323 L684,322 L683,322 L672,311 L672,310 L671,309 L671,308 L670,307 L670,305 L671,304 L671,279 L670,278 L671,277 L670,276 L670,273 L671,272 L670,271 L671,270 L671,269 L670,268 L670,234 L669,233"/>
  <path class="circuit" d="M673,207 L669,211 L669,220 L672,223 L680,223 L681,222 L682,222 L683,221 L683,220 L684,219 L684,211 L683,210 L683,209 L682,209 L681,208 L680,208 L679,207"/>
  <path class="circuit" d="M819,204 L818,205 L816,205 L813,208 L813,210 L812,211 L812,214 L813,215 L813,216 L814,217 L814,218 L815,219 L818,219 L819,220 L820,220 L821,219 L823,219 L826,216 L826,214 L827,213 L827,212 L826,211 L826,208 L825,207 L825,206 L824,205 L821,205 L820,204"/>
  <path class="circuit" d="M710,195 L710,199 L709,200 L709,202 L710,203 L710,205 L709,206 L710,207 L710,236 L711,237 L711,270 L712,271 L711,272 L711,274 L712,275 L712,276 L711,277 L712,278 L712,285 L711,286 L711,291 L712,292 L712,293 L713,294 L713,295 L719,301 L720,301 L740,321 L741,321 L747,327 L748,327 L761,340 L762,340 L765,343 L765,344 L766,345 L766,346 L765,347 L766,348 L766,350 L765,351 L765,391 L764,392 L764,425 L759,430 L758,430 L756,432 L755,432 L752,435 L751,435 L750,436 L749,436 L748,435 L749,434 L748,435 L702,389 L702,388 L677,363 L677,362 L658,343 L658,342 L658,344 L677,363 L677,364 L702,389 L702,390 L748,436 L751,436 L752,435 L753,435 L756,432 L757,432 L760,429 L761,429 L764,426 L764,392 L765,391 L765,351 L766,350 L766,348 L765,347 L766,346 L766,345 L765,344 L765,342 L763,340 L762,340 L749,327 L748,327 L742,321 L741,321 L721,301 L720,301 L713,294 L713,293 L711,291 L711,286 L712,285 L712,278 L711,277 L712,276 L712,275 L711,274 L711,272 L712,271 L711,270 L711,237 L710,236 L710,207 L709,206 L710,205 L710,203 L709,202 L709,200 L710,199"/>
  <path class="circuit" d="M723,181 L723,210 L722,211 L722,213 L723,214 L723,215 L722,216 L722,258 L721,259 L721,261 L722,262 L721,263 L721,286 L729,294 L729,295 L730,296 L731,296 L732,297 L732,298 L755,321 L755,322 L771,338 L771,339 L772,340 L772,350 L771,351 L771,367 L770,368 L770,383 L769,384 L769,398 L768,399 L768,416 L767,417 L767,426 L762,431 L761,431 L758,434 L757,434 L754,437 L753,437 L752,438 L752,440 L753,441 L753,442 L752,443 L750,441 L748,441 L746,443 L745,443 L741,447 L740,447 L737,450 L736,450 L732,454 L732,456 L729,459 L728,459 L727,460 L724,460 L722,462 L721,462 L719,464 L718,464 L716,466 L715,466 L714,467 L713,467 L710,470 L709,470 L708,471 L707,471 L705,473 L704,473 L702,475 L701,475 L700,476 L700,477 L699,478 L699,480 L696,483 L692,483 L689,480 L689,476 L691,474 L692,474 L693,473 L699,473 L700,472 L701,472 L703,470 L704,470 L705,469 L706,469 L708,467 L709,467 L711,465 L712,465 L714,463 L715,463 L716,462 L717,462 L719,460 L720,460 L722,458 L722,455 L721,454 L721,453 L714,446 L713,446 L706,439 L705,439 L700,434 L699,434 L695,430 L694,430 L693,429 L672,429 L671,428 L615,428 L614,427 L613,428 L612,427 L607,427 L606,428 L604,428 L603,427 L598,427 L597,428 L596,428 L595,427 L594,427 L589,422 L589,421 L577,409 L577,408 L553,384 L552,384 L550,382 L544,382 L549,382 L551,384 L552,384 L578,410 L578,411 L589,422 L589,423 L593,427 L595,427 L596,428 L597,428 L598,427 L603,427 L604,428 L606,428 L607,427 L612,427 L613,428 L614,427 L615,428 L671,428 L672,429 L692,429 L693,430 L694,430 L698,434 L699,434 L704,439 L705,439 L712,446 L713,446 L722,455 L722,457 L720,459 L719,458 L719,456 L719,458 L720,459 L719,460 L718,460 L716,462 L715,462 L714,463 L713,463 L711,465 L710,465 L708,467 L707,467 L705,469 L704,469 L703,470 L702,470 L700,472 L699,472 L698,473 L693,473 L692,474 L691,474 L688,471 L686,471 L685,470 L559,470 L558,469 L555,469 L554,468 L554,467 L549,462 L549,461 L544,456 L544,455 L539,450 L539,449 L534,444 L534,443 L529,438 L529,437 L524,432 L524,431 L519,426 L519,425 L516,422 L515,422 L514,421 L519,426 L519,427 L524,432 L524,433 L529,438 L529,439 L534,444 L534,445 L539,450 L539,451 L544,456 L544,457 L549,462 L549,463 L554,468 L554,469 L558,469 L559,470 L685,470 L686,471 L687,471 L690,474 L690,475 L689,476 L687,474 L627,474 L626,473 L623,473 L622,474 L621,473 L552,473 L547,468 L547,467 L532,452 L532,451 L530,449 L529,449 L528,448 L528,447 L518,437 L518,436 L517,436 L513,432 L513,431 L511,429 L510,429 L513,432 L513,433 L514,433 L515,434 L515,435 L516,436 L517,436 L519,438 L519,439 L528,448 L528,449 L529,449 L532,452 L532,453 L547,468 L547,469 L551,473 L621,473 L622,474 L623,473 L626,473 L627,474 L686,474 L687,475 L688,475 L689,476 L689,481 L691,483 L697,483 L699,481 L699,478 L702,475 L703,475 L705,473 L706,473 L708,471 L709,471 L710,470 L711,470 L714,467 L715,467 L716,466 L717,466 L719,464 L720,464 L722,462 L723,462 L724,463 L723,462 L725,460 L727,460 L728,459 L730,459 L731,458 L731,457 L732,456 L732,455 L737,450 L738,450 L741,447 L742,447 L746,443 L747,443 L749,441 L750,441 L752,443 L753,443 L753,440 L752,439 L754,437 L755,437 L758,434 L759,434 L763,430 L764,430 L767,427 L767,417 L768,416 L768,399 L769,398 L769,384 L770,383 L770,368 L771,367 L771,351 L772,350 L772,339 L771,338 L771,337 L755,321 L755,320 L732,297 L732,296 L731,296 L729,294 L729,293 L721,285 L721,263 L722,262 L721,261 L721,259 L722,258 L722,216 L723,215 L723,214 L722,213 L722,211 L723,210"/>
  <path class="circuit" d="M1023,171 L1023,172 L1002,193 L1002,194 L998,198 L997,198 L996,199 L996,200 L974,222 L974,223 L973,224 L973,258 L960,271 L960,272 L938,294 L938,295 L922,311 L922,312 L895,339 L895,340 L894,341 L894,371 L895,372 L895,452 L886,461 L886,462 L876,472 L876,473 L864,485 L864,486 L845,505 L845,506 L815,536 L811,536 L808,539 L808,540 L807,541 L807,545 L808,546 L808,547 L810,549 L817,549 L819,547 L819,546 L820,545 L820,543 L819,542 L819,540 L818,539 L818,538 L821,535 L822,536 L823,536 L822,536 L821,535 L834,522 L834,521 L881,474 L881,473 L889,465 L889,464 L896,457 L896,456 L897,455 L897,454 L898,453 L898,343 L948,293 L948,292 L978,262 L978,261 L979,260 L979,228 L992,215 L993,215 L1014,194 L1015,194 L1021,188 L1021,187 L1023,185 L1023,182 L1023,184 L1021,186 L1021,187 L1014,194 L1013,194 L992,215 L991,215 L980,226 L980,227 L979,228 L979,259 L978,260 L978,261 L948,291 L948,292 L898,342 L898,453 L896,455 L896,456 L889,463 L889,464 L881,472 L881,473 L836,518 L836,519 L819,536 L819,537 L818,538 L818,539 L819,540 L819,542 L820,543 L820,545 L816,549 L811,549 L807,545 L807,541 L812,536 L816,536 L834,518 L834,517 L864,487 L864,486 L876,474 L876,473 L886,463 L886,462 L895,453 L895,372 L894,371 L894,342 L895,341 L895,340 L922,313 L922,312 L938,296 L938,295 L960,273 L960,272 L973,259 L973,224 L996,201 L996,200 L999,197 L1000,197 L1000,196 L1023,173"/>
  <path class="circuit" d="M1022,138 L1020,140 L1019,140 L1019,141 L1014,146 L1014,147 L1004,157 L1004,158 L1003,159 L1002,159 L1002,160 L993,169 L993,170 L992,171 L991,171 L990,172 L990,173 L989,174 L988,174 L987,175 L987,176 L983,180 L982,180 L982,181 L950,213 L949,213 L949,214 L948,215 L948,235 L947,236 L947,260 L941,266 L941,267 L924,284 L924,285 L882,327 L882,437 L881,438 L881,447 L875,453 L875,454 L800,529 L800,530 L750,580 L730,580 L729,579 L730,578 L749,578 L780,547 L780,546 L781,545 L782,545 L783,544 L783,543 L847,479 L847,478 L864,461 L864,460 L872,452 L872,451 L877,446 L877,445 L878,444 L878,394 L879,393 L879,326 L894,311 L894,310 L904,300 L904,299 L913,290 L913,289 L919,283 L919,282 L926,275 L926,274 L931,269 L931,268 L938,261 L938,260 L939,259 L939,219 L940,218 L939,217 L939,211 L940,210 L940,209 L942,207 L942,206 L943,205 L944,205 L947,202 L947,201 L954,194 L955,194 L955,193 L964,184 L964,183 L974,173 L974,172 L975,171 L976,171 L983,164 L983,163 L993,153 L993,152 L983,162 L983,163 L975,171 L974,171 L974,172 L964,182 L964,183 L955,192 L955,193 L954,194 L953,194 L947,200 L947,201 L940,208 L940,210 L939,211 L939,217 L940,218 L939,219 L939,258 L938,259 L938,260 L931,267 L931,268 L926,273 L926,274 L919,281 L919,282 L913,288 L913,289 L904,298 L904,299 L894,309 L894,310 L880,324 L880,325 L879,326 L879,393 L878,394 L878,444 L872,450 L872,451 L864,459 L864,460 L847,477 L847,478 L783,542 L783,543 L781,545 L780,545 L780,546 L752,574 L752,575 L749,578 L730,578 L729,577 L707,577 L703,581 L702,581 L702,582 L699,585 L698,585 L650,633 L536,633 L514,655 L513,655 L513,656 L512,657 L511,657 L480,688 L479,688 L455,712 L454,712 L440,726 L439,726 L426,739 L425,739 L425,740 L422,743 L413,743 L423,743 L425,741 L425,740 L426,739 L427,739 L440,726 L441,726 L455,712 L456,712 L456,711 L458,709 L459,709 L480,688 L481,688 L512,657 L513,657 L513,656 L514,655 L515,655 L537,633 L651,633 L706,578 L707,578 L708,577 L729,577 L730,578 L729,579 L709,579 L708,580 L707,580 L651,636 L539,636 L538,637 L537,637 L487,687 L487,688 L467,708 L467,709 L465,711 L464,711 L464,712 L445,731 L445,732 L424,753 L416,753 L425,753 L443,735 L443,734 L444,733 L445,733 L445,732 L464,713 L464,712 L465,711 L466,711 L466,710 L487,689 L487,688 L539,636 L652,636 L709,579 L729,579 L730,580 L750,580 L751,579 L752,579 L796,535 L796,534 L797,533 L798,533 L800,531 L800,530 L875,455 L875,454 L881,448 L881,438 L882,437 L882,328 L924,286 L924,285 L941,268 L941,267 L946,262 L946,261 L947,260 L947,236 L948,235 L948,216 L949,215 L949,214 L950,213 L951,213 L982,182 L982,181 L983,180 L984,180 L987,177 L987,176 L989,174 L990,174 L990,173 L1002,161 L1002,160 L1003,159 L1004,159 L1004,158 L1014,148 L1014,147 L1019,142 L1019,141 L1020,140 L1021,140 L1022,139"/>
  <path class="circuit" d="M792,117 L792,134 L791,135 L792,136 L792,138 L791,139 L791,171 L790,172 L790,197 L789,198 L789,199 L790,200 L790,203 L789,204 L789,225 L788,226 L788,250 L789,251 L789,252 L795,258 L795,259 L798,262 L798,263 L803,268 L803,269 L807,273 L807,274 L812,279 L812,280 L816,284 L816,352 L817,353 L816,354 L816,355 L817,356 L817,416 L792,441 L791,441 L727,505 L714,505 L713,504 L712,504 L713,504 L714,505 L727,505 L728,504 L729,504 L792,441 L793,441 L816,418 L816,417 L817,416 L817,356 L816,355 L816,354 L817,353 L816,352 L816,283 L812,279 L812,278 L807,273 L807,272 L803,268 L803,267 L798,262 L798,261 L795,258 L795,257 L789,251 L789,250 L788,249 L788,226 L789,225 L789,204 L790,203 L790,200 L789,199 L789,198 L790,197 L790,172 L791,171 L791,139 L792,138 L792,136 L791,135 L792,134"/>
  <path class="circuit" d="M776,113 L776,125 L777,126 L776,127 L776,129 L777,130 L777,171 L778,172 L778,204 L779,205 L779,241 L780,242 L779,243 L780,244 L780,247 L779,248 L779,251 L780,252 L780,254 L782,256 L782,257 L783,258 L783,259 L787,263 L787,264 L797,274 L797,275 L804,282 L804,283 L810,289 L810,306 L811,307 L811,335 L812,336 L812,372 L813,373 L813,413 L814,414 L766,462 L765,462 L763,464 L763,465 L762,466 L761,466 L729,498 L729,499 L726,502 L725,502 L724,503 L723,503 L722,502 L612,502 L611,501 L524,501 L523,500 L520,500 L519,499 L519,498 L515,494 L515,493 L510,488 L510,487 L505,482 L505,481 L500,476 L500,475 L495,470 L495,469 L490,464 L490,463 L482,455 L482,454 L476,448 L476,447 L469,440 L469,441 L476,448 L476,449 L482,455 L482,456 L490,464 L490,465 L496,471 L496,472 L500,476 L500,477 L505,482 L505,483 L510,488 L510,489 L515,494 L515,495 L519,499 L519,500 L523,500 L524,501 L611,501 L612,502 L722,502 L723,503 L724,503 L725,502 L727,502 L729,500 L729,499 L767,461 L768,461 L813,416 L813,415 L814,414 L813,413 L813,373 L812,372 L812,336 L811,335 L811,307 L810,306 L810,289 L809,288 L809,287 L804,282 L804,281 L797,274 L797,273 L787,263 L787,262 L783,258 L783,257 L782,256 L782,255 L780,253 L780,252 L779,251 L779,248 L780,247 L780,244 L779,243 L780,242 L779,241 L779,205 L778,204 L778,172 L777,171 L777,130 L776,129 L776,127 L777,126 L776,125"/>
  <path class="circuit" d="M713,107 L715,109 L716,109 L722,115 L723,115 L730,122 L731,122 L734,125 L735,125 L739,129 L740,129 L742,131 L742,135 L743,136 L743,178 L744,179 L744,215 L745,216 L745,246 L746,247 L746,271 L747,272 L747,273 L765,291 L766,291 L792,317 L792,364 L793,365 L793,392 L792,393 L792,394 L791,395 L791,398 L790,399 L791,400 L791,403 L794,406 L800,406 L801,405 L802,405 L802,403 L803,402 L803,399 L802,398 L802,397 L801,396 L800,396 L796,392 L796,363 L797,362 L797,314 L796,313 L796,312 L793,309 L793,308 L780,295 L780,294 L765,279 L765,278 L764,278 L763,277 L763,276 L754,267 L754,213 L755,212 L755,179 L756,178 L756,150 L757,149 L757,144 L756,143 L757,142 L757,124 L757,142 L756,143 L757,144 L757,149 L756,150 L756,178 L755,179 L755,212 L754,213 L754,268 L765,279 L765,280 L780,295 L780,296 L793,309 L793,310 L797,314 L797,362 L796,363 L796,393 L799,396 L800,396 L802,398 L802,399 L803,400 L803,402 L802,403 L802,404 L801,405 L800,405 L799,406 L795,406 L791,402 L791,400 L790,399 L791,398 L791,396 L792,395 L792,394 L793,393 L793,365 L792,364 L792,317 L791,316 L791,315 L768,292 L767,292 L747,272 L747,271 L746,270 L746,247 L745,246 L745,216 L744,215 L744,179 L743,178 L743,136 L742,135 L742,131 L741,130 L741,129 L740,129 L737,126 L736,126 L732,122 L731,122 L725,116 L724,116 L720,112 L719,112 L716,109 L715,109"/>
  <path class="circuit" d="M1003,82 L1000,85 L1000,86 L965,121 L964,121 L937,148 L936,148 L936,149 L932,153 L931,153 L906,178 L905,178 L903,180 L903,181 L902,182 L901,182 L899,184 L899,195 L898,196 L898,219 L897,220 L897,263 L896,264 L896,265 L895,266 L895,267 L876,286 L876,287 L860,303 L860,304 L859,305 L859,357 L860,358 L860,359 L859,360 L859,364 L860,365 L860,436 L859,437 L859,438 L830,467 L830,468 L801,497 L801,498 L739,560 L738,560 L737,561 L731,561 L730,560 L694,560 L693,561 L692,561 L665,588 L664,588 L641,611 L476,611 L475,612 L435,612 L434,613 L433,612 L431,612 L430,613 L409,613 L408,614 L407,614 L399,622 L399,623 L374,648 L374,649 L358,665 L358,666 L354,670 L353,670 L353,671 L348,676 L349,676 L353,672 L353,671 L354,670 L355,670 L357,668 L357,667 L370,654 L370,653 L371,652 L372,652 L374,650 L374,649 L399,624 L399,623 L408,614 L409,614 L410,613 L430,613 L431,612 L433,612 L434,613 L435,612 L475,612 L476,611 L641,611 L642,610 L643,610 L675,578 L676,578 L694,560 L730,560 L731,561 L737,561 L738,560 L740,560 L801,499 L801,498 L830,469 L830,468 L853,445 L853,444 L860,437 L860,365 L859,364 L859,360 L860,359 L860,358 L859,357 L859,305 L876,288 L876,287 L895,268 L895,267 L896,266 L896,264 L897,263 L897,220 L898,219 L898,196 L899,195 L899,185 L906,178 L907,178 L932,153 L933,153 L935,151 L935,150 L937,148 L938,148 L965,121 L966,121 L978,109 L978,108 L979,107 L980,107 L994,93 L994,92 L995,91 L996,91 L1000,87 L1000,86 L1004,82"/>
  <path class="circuit" d="M942,79 L942,80 L941,81 L940,81 L937,84 L937,85 L936,86 L935,86 L931,90 L931,91 L928,94 L927,94 L926,95 L926,96 L924,98 L923,98 L923,99 L921,101 L920,101 L920,102 L915,107 L914,107 L914,108 L907,115 L906,115 L905,116 L905,117 L895,127 L894,127 L894,128 L891,131 L890,131 L888,133 L888,134 L886,136 L885,136 L879,142 L879,143 L878,144 L878,151 L877,152 L877,169 L876,170 L876,192 L875,193 L875,212 L874,213 L874,229 L873,230 L873,253 L872,254 L872,255 L865,262 L865,263 L851,277 L851,278 L841,288 L841,290 L840,291 L840,292 L841,293 L841,420 L840,421 L840,422 L820,442 L820,443 L794,469 L794,470 L763,501 L763,502 L735,530 L708,530 L707,529 L687,529 L686,530 L687,529 L707,529 L708,530 L735,530 L736,529 L737,529 L763,503 L763,502 L794,471 L794,470 L820,444 L820,443 L840,423 L840,422 L841,421 L841,293 L840,292 L840,291 L841,290 L841,289 L848,282 L848,281 L849,280 L850,280 L851,279 L851,278 L865,264 L865,263 L872,256 L872,255 L873,254 L873,230 L874,229 L874,213 L875,212 L875,193 L876,192 L876,170 L877,169 L877,152 L878,151 L878,145 L879,144 L879,143 L886,136 L887,136 L888,135 L888,134 L891,131 L892,131 L893,130 L893,129 L895,127 L896,127 L896,126 L897,125 L898,125 L905,118 L905,117 L907,115 L908,115 L913,110 L913,109 L915,107 L916,107 L920,103 L920,102 L921,101 L922,101 L923,100 L923,99 L924,98 L925,98 L926,97 L926,96 L928,94 L929,94 L931,92 L931,91 L936,86 L937,86 L937,85 L943,79"/>
  <path class="circuit" d="M985,75 L985,76 L984,77 L984,78 L973,89 L973,90 L958,105 L958,106 L957,107 L956,107 L955,108 L955,109 L937,127 L937,128 L934,131 L933,131 L933,132 L921,144 L921,145 L919,147 L918,147 L918,148 L908,158 L908,159 L898,169 L898,170 L890,178 L890,180 L889,181 L889,216 L890,217 L890,218 L889,219 L889,220 L890,221 L890,261 L889,262 L889,263 L884,268 L884,269 L872,281 L872,282 L860,294 L860,295 L855,300 L855,336 L856,337 L856,369 L857,370 L857,414 L858,415 L858,435 L817,476 L817,477 L772,522 L772,523 L767,528 L766,528 L749,545 L749,546 L737,558 L691,558 L653,596 L652,596 L639,609 L627,609 L626,608 L508,608 L507,607 L461,607 L460,606 L432,606 L431,605 L401,605 L376,630 L375,630 L375,631 L365,641 L364,641 L355,650 L355,651 L353,653 L352,653 L352,654 L350,656 L354,652 L355,652 L355,651 L366,640 L367,640 L370,637 L370,636 L371,635 L372,635 L374,633 L374,632 L377,629 L378,629 L402,605 L431,605 L432,606 L460,606 L461,607 L507,607 L508,608 L626,608 L627,609 L639,609 L640,608 L641,608 L663,586 L664,586 L692,558 L738,558 L749,547 L749,546 L767,528 L768,528 L772,524 L772,523 L817,478 L817,477 L857,437 L857,436 L858,435 L858,415 L857,414 L857,370 L856,369 L856,337 L855,336 L855,301 L860,296 L860,295 L872,283 L872,282 L884,270 L884,269 L889,264 L889,263 L890,262 L890,221 L889,220 L889,219 L890,218 L890,217 L889,216 L889,181 L890,180 L890,179 L898,171 L898,170 L908,160 L908,159 L918,149 L918,148 L919,147 L920,147 L921,146 L921,145 L933,133 L933,132 L934,131 L935,131 L937,129 L937,128 L954,111 L954,110 L973,91 L973,90 L983,80 L983,79 L984,78 L984,77 L985,76"/>
  <path class="circuit" d="M923,74 L923,75 L922,76 L921,76 L919,78 L919,79 L908,90 L908,91 L896,103 L896,104 L893,107 L892,107 L891,108 L891,109 L881,119 L881,120 L867,134 L867,135 L865,137 L865,140 L864,141 L864,196 L865,197 L864,198 L864,199 L865,200 L864,201 L865,202 L865,250 L861,254 L861,255 L855,261 L855,262 L848,269 L848,270 L840,278 L840,279 L835,284 L835,304 L836,305 L836,334 L837,335 L837,369 L838,370 L838,412 L839,413 L839,418 L830,427 L830,428 L800,458 L800,459 L739,520 L739,521 L733,527 L732,527 L731,528 L719,528 L718,527 L683,527 L682,528 L681,528 L672,537 L672,538 L657,553 L657,554 L633,578 L584,578 L583,577 L504,577 L503,576 L453,576 L452,575 L418,575 L417,574 L395,574 L394,573 L366,573 L394,573 L395,574 L417,574 L418,575 L452,575 L453,576 L503,576 L504,577 L583,577 L584,578 L634,578 L657,555 L657,554 L672,539 L672,538 L682,528 L683,528 L684,527 L718,527 L719,528 L731,528 L732,527 L734,527 L739,522 L739,521 L800,460 L800,459 L830,429 L830,428 L838,420 L838,419 L839,418 L839,413 L838,412 L838,370 L837,369 L837,335 L836,334 L836,305 L835,304 L835,285 L840,280 L840,279 L848,271 L848,270 L855,263 L855,262 L861,256 L861,255 L865,251 L865,202 L864,201 L865,200 L864,199 L864,198 L865,197 L864,196 L864,141 L865,140 L865,138 L867,136 L867,135 L880,122 L880,121 L891,110 L891,109 L893,107 L894,107 L896,105 L896,104 L908,92 L908,91 L919,80 L919,79 L922,76 L923,76"/>
  <path class="circuit" d="M678,69 L677,70 L676,70 L675,71 L674,71 L672,73 L672,75 L671,76 L671,83 L672,84 L672,85 L673,86 L673,87 L674,88 L676,88 L677,89 L685,89 L686,88 L687,88 L688,87 L688,86 L689,85 L689,84 L690,83 L690,77 L689,76 L689,74 L688,73 L688,72 L687,71 L686,71 L685,70 L683,70 L682,69"/>
</svg>